<svg width="403" height="555" viewBox="0 0 403 555" fill="none" xmlns="http://www.w3.org/2000/svg">
<path d="M554.988 236.545C562.809 291.149 554.261 346.847 530.427 396.594C506.593 446.341 468.542 487.903 421.087 516.024C373.632 544.145 318.903 557.563 263.822 554.581C208.741 551.598 155.781 532.349 111.64 499.267C67.499 466.186 34.1589 420.758 15.8359 368.728C-2.48709 316.699 -4.97001 260.404 8.70112 206.963C22.3723 153.522 51.5834 105.336 92.6407 68.4965C133.698 31.6574 184.757 7.82045 239.362 1.98969e-05L259.132 138.043C231.83 141.953 206.3 153.872 185.772 172.291C165.243 190.711 150.637 214.804 143.802 241.524C136.966 268.245 138.208 296.392 147.369 322.407C156.531 348.422 173.201 371.136 195.271 387.677C217.342 404.217 243.822 413.842 271.362 415.333C298.903 416.824 326.267 410.116 349.995 396.055C373.723 381.994 392.748 361.213 404.665 336.34C416.582 311.466 420.856 283.618 416.945 256.315L554.988 236.545Z" fill="url(#paint0_linear_259_293)"/>
<defs>
<linearGradient id="paint0_linear_259_293" x1="111.64" y1="499.267" x2="446.165" y2="52.904" gradientUnits="userSpaceOnUse">
<stop stop-color="#4635B1"/>
<stop offset="1" stop-color="#1E164B"/>
</linearGradient>
</defs>
</svg>
