<svg width="416" height="597" viewBox="0 0 416 597" fill="none" xmlns="http://www.w3.org/2000/svg">
<path d="M415.468 452.239C387.294 499.129 346.776 537.374 298.341 562.799C249.906 588.224 195.416 599.851 140.821 596.409C86.2268 592.967 33.6279 574.589 -11.2305 543.282C-56.0889 511.975 -91.4819 468.944 -113.544 418.887C-135.606 368.83 -143.488 313.674 -136.33 259.441C-129.173 205.209 -107.25 153.986 -72.9558 111.368C-38.6621 68.7492 6.68354 36.3739 58.1284 17.7777C109.573 -0.818395 165.139 -4.92022 218.757 5.92027L189.18 152.21C162.371 146.79 134.588 148.841 108.866 158.139C83.1433 167.437 60.4705 183.625 43.3237 204.934C26.1768 226.243 15.2153 251.855 11.6364 278.971C8.0574 306.087 11.9986 333.665 23.0296 358.694C34.0606 383.722 51.7571 405.238 74.1863 420.891C96.6155 436.545 122.915 445.734 150.212 447.455C177.509 449.176 204.755 443.362 228.972 430.65C253.19 417.937 273.448 398.814 287.535 375.37L415.468 452.239Z" fill="url(#paint0_linear_252_1267)"/>
<defs>
<linearGradient id="paint0_linear_252_1267" x1="313.342" y1="42.6358" x2="5.86425" y2="554.365" gradientUnits="userSpaceOnUse">
<stop stop-color="#4635B1"/>
<stop offset="1" stop-color="#1E164B"/>
</linearGradient>
</defs>
</svg>
