<svg width="384" height="587" viewBox="0 0 384 587" fill="none" xmlns="http://www.w3.org/2000/svg">
<path d="M-213 298.5C-213 242.813 -197.422 188.236 -168.028 140.938C-138.634 93.6406 -96.5949 55.5087 -46.6633 30.8526C3.26824 6.19661 59.1013 -4.00032 114.525 1.41447C169.948 6.82926 222.752 27.6399 266.967 61.4939C311.182 95.3479 345.046 140.895 364.73 192.988C384.414 245.08 389.134 301.64 378.356 356.275C367.577 410.909 341.731 461.439 303.738 502.153C265.745 542.867 217.121 572.141 163.361 586.666L124.431 442.583C151.31 435.32 175.623 420.683 194.619 400.326C213.615 379.969 226.539 354.704 231.928 327.387C237.317 300.07 234.957 271.79 225.115 245.744C215.273 219.698 198.341 196.924 176.234 179.997C154.126 163.07 127.724 152.665 100.012 149.957C72.3007 147.25 44.3841 152.348 19.4183 164.676C-5.54744 177.004 -26.5669 196.07 -41.2641 219.719C-55.9612 243.368 -63.75 270.656 -63.75 298.5H-213Z" fill="url(#paint0_linear_252_1259)"/>
<defs>
<linearGradient id="paint0_linear_252_1259" x1="85.5" y1="0" x2="85.5" y2="597" gradientUnits="userSpaceOnUse">
<stop stop-color="#4635B1"/>
<stop offset="1" stop-color="#1E164B"/>
</linearGradient>
</defs>
</svg>
